<?xml version="1.0" encoding="UTF-8" standalone="no"?>
<svg width="336px" height="188px" viewBox="0 0 336 188" version="1.1" xmlns="http://www.w3.org/2000/svg" xmlns:xlink="http://www.w3.org/1999/xlink">
    <!-- Generator: Sketch 3.8.1 (29687) - http://www.bohemiancoding.com/sketch -->
    <title>Logo Copy</title>
    <desc>Created with Sketch.</desc>
    <defs></defs>
    <g id="Page-1" stroke="none" stroke-width="1" fill="none" fill-rule="evenodd">
        <g id="iPhone-6-Copy-35" transform="translate(-33.000000, -101.000000)">
            <g id="Logo-Copy" transform="translate(33.000000, 101.000000)">
                <g id="brain">
                    <path d="M113.062924,160.27376 C112.913714,163.90216 109.948183,166.74848 106.374625,166.74848 C106.285099,166.74848 106.191844,166.74848 106.094858,166.74472 C102.401932,166.59056 99.5296564,163.45096 99.6788655,159.7248 C100.051888,150.54664 102.387011,141.47 106.329862,133.25064 C97.2915196,132.56632 88.152461,131.11496 79.0954674,129.65984 C67.7779556,127.84 56.0762304,125.96 44.4976027,125.51256 C40.804677,125.36968 37.9212107,122.23384 38.0629594,118.50768 C38.2009778,114.78152 41.3492902,111.81864 45.0123741,112.02168 C54.2670698,112.38264 63.3688261,113.55952 72.2654199,114.91688 C69.8706135,111.954 67.6250163,108.85952 65.3533074,105.41536 C63.301682,102.31336 64.1372531,98.12472 67.2146912,96.05672 C70.2995898,93.99624 74.4476033,94.83096 76.4992287,97.93296 C81.5723388,105.61464 86.5298118,111.4088 93.9007423,118.28208 C120.680049,122.09848 143.979053,122.25264 162.466063,98.43304 C162.469793,98.42928 162.473524,98.42552 162.477254,98.42176 L162.477254,97.90288 C162.231059,97.93296 161.984864,97.97432 161.731208,97.97432 C161.499934,97.97432 161.27239,97.96304 161.037386,97.94048 C147.045301,96.48912 133.650052,88.58936 125.201085,76.81304 C123.108428,73.89528 121.321648,70.73688 119.848208,67.41304 C112.84657,69.56 105.613658,70.69552 98.3509043,70.69552 C93.5799427,70.69552 88.8052509,70.22928 84.0827822,69.28928 C80.4570006,68.56736 78.0920361,65.02168 78.8082398,61.3632 C79.5207134,57.70848 83.015937,55.31336 86.6715605,56.04656 C96.4261067,57.98296 106.471611,57.46408 115.968771,54.55008 C114.80121,48.15056 114.64827,41.55176 115.733767,35.1748 C116.360445,31.50128 119.814636,29.0272 123.47026,29.6664 C127.114692,30.29808 129.561722,33.78736 128.935044,37.46088 C127.07739,48.34984 129.740773,60.1036 136.052319,68.90576 C142.29672,77.61392 152.148253,83.44944 162.40638,84.51352 C162.428761,84.51728 162.451142,84.5248 162.473524,84.52856 L162.473524,17.13056 C155.21823,-10.47912 103.83807,2.10936 92.3638884,10.81752 C81.4828133,19.07448 78.2748172,29.63632 77.125907,36.0584 C60.9404477,24.2332 39.528939,28.19248 27.4168887,44.55976 C15.3048383,60.92704 7.84438235,87.13048 22.6645782,100.79808 C11.3843687,98.89176 5.59878509,104.21216 1.00687442,123.08736 C-4.16695181,144.35016 18.7552992,192.38792 46.0866798,187.38336 C46.0866798,187.38336 138.156167,187.31568 162.473524,187.38336 L162.473524,117.90984 C149.917576,128.73488 135.977714,132.7844 121.470857,133.52136 C116.423859,141.3948 113.447137,150.76848 113.062924,160.27376 L113.062924,160.27376 Z" id="Shape" fill="#3498DB"></path>
                    <path d="M335.265145,123.0836 C332.165326,110.33344 328.509702,103.78352 322.992695,101.45608 C311.197714,103.93016 299.35797,113.30384 292.591337,125.70056 C291.371552,127.934 289.081192,129.19736 286.719958,129.19736 C285.630731,129.19736 284.522854,128.92664 283.500771,128.35888 C280.259203,126.5616 279.080451,122.45944 280.8635,119.192 C283.743236,113.91296 287.398859,109.06256 291.554333,104.81 C281.288746,100.92968 270.586722,93.18408 265.599407,84.81056 C263.69326,81.61456 264.722803,77.46728 267.893497,75.54968 C271.064191,73.63208 275.174902,74.66232 277.081049,77.86208 C282.836791,87.52904 299.734723,94.9212 304.871247,93.85336 C305.214428,93.77816 305.550149,93.75936 305.8896,93.74056 C310.738896,91.01456 315.823197,89.06688 320.918688,88.07048 C324.246052,74.23744 317.84498,56.69704 308.862591,44.556 C299.965998,32.53152 286.048517,27.23368 272.873352,29.94464 C248.037494,39.29576 230.908287,66.28128 232.557047,94.49256 C232.773401,98.21496 229.957078,101.4072 226.267883,101.62528 C226.137325,101.6328 225.999306,101.63656 225.868749,101.63656 C222.351144,101.63656 219.400533,98.8692 219.19164,95.28216 C218.471706,82.91928 220.81802,70.76696 225.473344,59.72008 C212.492151,59.6524 200.20478,50.87656 190.845638,34.32504 C189.014096,31.08768 190.136894,26.96296 193.348621,25.12056 C196.556617,23.2744 200.644947,24.4024 202.480219,27.64352 C204.61764,31.42232 209.127485,38.40088 215.304743,42.66848 C221.493191,46.93608 227.53243,47.33464 234.254301,43.9732 C239.931708,36.01328 246.970648,29.14 255.065243,23.91736 C252.756232,19.50312 249.272199,14.88208 243.915592,10.81376 C232.43768,2.10184 181.06125,-10.48288 173.805956,17.1268 L173.805956,99.78288 L173.805956,105.44544 L173.805956,145.93312 C183.814158,142.41376 196.336533,138.05216 208.866369,133.6868 C221.534224,129.27256 234.190887,124.86208 244.199089,121.34272 C247.698043,120.11696 251.510336,121.9744 252.73012,125.49376 C253.949905,129.01312 252.107172,132.8596 248.615679,134.08912 C240.890377,136.80384 231.587188,140.05248 221.922167,143.42144 C221.989311,143.59816 222.075107,143.7636 222.12733,143.94784 C223.914109,150.35864 231.680444,154.99472 238.115087,153.47192 C241.711027,152.62216 245.321888,154.87816 246.161189,158.51032 C247.00422,162.13872 244.766084,165.76712 241.166414,166.61688 C239.267727,167.06432 237.354121,167.27488 235.451704,167.27488 C223.817123,167.27488 212.63763,159.30368 209.321457,147.80936 C197.869657,151.79872 186.63421,155.71664 177.569756,158.90512 C176.838632,159.1608 176.092586,159.28488 175.361461,159.28488 C174.831769,159.28488 174.324458,159.16456 173.817147,159.04424 L173.817147,187.37584 C198.134503,187.30816 290.203991,187.37584 290.203991,187.37584 C317.51672,192.38792 340.438971,144.35016 335.265145,123.0836 L335.265145,123.0836 Z" id="Shape" fill="#4EB479"></path>
                </g>
                <g id="Group" transform="translate(125.000000, 8.000000)" fill="#FFD664">
                    <polygon id="Shape" points="75.0282477 0 26.047713 17.9468303 0 108.565193 33.2275576 94.661939 5.19969313 179.236479 95.6013035 53.1142473 53.3142964 64.1761253"></polygon>
                </g>
            </g>
        </g>
    </g>
</svg>